# xmcd
#
# Track frame offsets:
#	150
#	15297
#	30202
#	41105
#	54925
#	68490
#	80380
#	95760
#	114410
#	129575
#
# Disc length: 1922 seconds
#
# Revision: 0
# Processed by: cddbd v1.5.1PL2 Copyright (c) Steve Scherf et al.
# Submitted via: dBpowerAMP V4.0
#
DISCID=6e07800a
DTITLE=Kenny Rogers - Beginnings Of An Icon
DYEAR=2005
DGENRE=Country
TTITLE0=Just Dropped In
TTITLE1=Heed The Call
TTITLE2=Always Leaving Always Gone
TTITLE3=But You Know I Love You
TTITLE4=Ruby Don't Take Your Love To Town
TTITLE5=Me And Bobby McGee
TTITLE6=For The Good Times
TTITLE7=I Believe In Music
TTITLE8=Tell It All Brother
TTITLE9=Church Without A Name
EXTD=
EXTT0=
EXTT1=
EXTT2=
EXTT3=
EXTT4=
EXTT5=
EXTT6=
EXTT7=
EXTT8=
EXTT9=
PLAYORDER=
